<svg width="179" height="48" viewBox="0 0 179 48" fill="none" xmlns="http://www.w3.org/2000/svg">
<g clip-path="url(#clip0_3_453)">
<path d="M6.86601 22.0334C6.80142 21.9489 6.71611 21.8825 6.61833 21.8406C6.52056 21.7986 6.41362 21.7827 6.30786 21.7941C6.20209 21.8056 6.10108 21.8442 6.01459 21.9062C5.9281 21.9681 5.85905 22.0513 5.81411 22.1477L0.483963 32.8047C0.435406 32.9018 0.41248 33.0097 0.417362 33.1182C0.422243 33.2267 0.454771 33.3321 0.511855 33.4245C0.56894 33.5169 0.648687 33.5931 0.743525 33.646C0.838363 33.6989 0.945144 33.7266 1.05373 33.7267H8.47569C8.59456 33.7294 8.71168 33.6976 8.81282 33.6351C8.91396 33.5726 8.99478 33.482 9.04545 33.3745C10.6465 30.0662 9.6762 25.0359 6.86601 22.0334Z" fill="black"/>
<path d="M10.7751 12.3404C9.44702 14.384 8.67305 16.7377 8.52917 19.1707C8.3853 21.6036 8.87647 24.0322 9.95448 26.2181L13.5327 33.3745C13.5856 33.4803 13.6669 33.5693 13.7675 33.6315C13.8682 33.6937 13.9841 33.7266 14.1024 33.7267H21.5231C21.6317 33.7266 21.7384 33.6989 21.8333 33.646C21.9281 33.5931 22.0079 33.5169 22.065 33.4245C22.122 33.3321 22.1546 33.2267 22.1594 33.1182C22.1643 33.0097 22.1414 32.9018 22.0928 32.8047C22.0928 32.8047 12.1096 12.8359 11.8587 12.3364C11.8091 12.2347 11.7318 12.1491 11.6358 12.0894C11.5397 12.0296 11.4288 11.9981 11.3157 11.9985C11.2025 11.999 11.0918 12.0313 10.9962 12.0917C10.9006 12.1522 10.824 12.2384 10.7751 12.3404Z" fill="black"/>
<path d="M97.8156 20.8852C97.8156 23.5241 99.0398 25.6192 103.828 26.5442C106.685 27.144 107.283 27.6051 107.283 28.5574C107.283 29.4823 106.684 30.0811 104.672 30.0811C102.24 30.0374 99.8562 29.3924 97.734 28.2039V32.5021C99.1761 33.2095 101.08 33.9985 104.617 33.9985C109.623 33.9985 111.609 31.7661 111.609 28.4484L97.8156 20.8852ZM111.609 28.4484C111.609 25.3197 109.95 23.8503 105.27 22.8441C102.686 22.2726 102.06 21.7015 102.06 20.8852C102.06 19.8523 102.985 19.4161 104.699 19.4161C106.767 19.4161 108.807 20.0419 110.739 20.9125V16.8042C108.887 15.9612 106.869 15.5429 104.835 15.58C100.21 15.58 97.8156 17.5932 97.8156 20.8852" fill="black"/>
<path d="M162.128 15.8521V33.7267H165.937V20.0963L167.542 23.7145L172.929 33.7267H177.717V15.8521H173.909V27.3877L172.467 24.041L168.141 15.8521H162.128Z" fill="black"/>
<path d="M137.903 15.8521H133.74V33.7267H137.903V15.8521Z" fill="black"/>
<path d="M128.938 28.4483C128.938 25.3196 127.278 23.8502 122.598 22.8439C120.014 22.2725 119.388 21.7014 119.388 20.8851C119.388 19.8522 120.313 19.416 122.027 19.416C124.095 19.416 126.135 20.0417 128.067 20.9124V16.8041C126.215 15.9611 124.198 15.5428 122.163 15.5799C117.538 15.5799 115.144 17.5931 115.144 20.8851C115.144 23.524 116.368 25.6191 121.156 26.5441C124.013 27.1438 124.612 27.605 124.612 28.5573C124.612 29.4822 124.012 30.081 122 30.081C119.568 30.0372 117.184 29.3923 115.062 28.2037V32.502C116.504 33.2093 118.409 33.9984 121.945 33.9984C126.951 33.9984 128.938 31.7659 128.938 28.4483Z" fill="black"/>
<path d="M65.4782 15.8521V33.7267H74.0341L75.3812 29.8633H69.6679V15.8521H65.4782Z" fill="black"/>
<path d="M48.5754 15.8521V19.7151H53.2005V33.7267H57.3901V19.7151H62.3418V15.8521H48.5754Z" fill="black"/>
<path d="M42.5 15.8521H37.0092L30.7761 33.7267H35.5361L36.4198 30.7163C38.596 31.3553 40.9101 31.3553 43.0864 30.7163L43.97 33.7267H48.7311L42.5 15.8521ZM39.7544 27.4929C38.979 27.4929 38.2076 27.3819 37.4637 27.1634L39.7544 19.3629L42.0451 27.1661C41.3011 27.3837 40.5297 27.4938 39.7544 27.4929Z" fill="black"/>
<path d="M88.7848 15.8521H83.2944L77.0612 33.7267H81.8223L82.7059 30.7163C84.8822 31.3553 87.1963 31.3553 89.3725 30.7163L90.2562 33.7267H95.0172L88.7848 15.8521ZM86.0396 27.4929C85.2642 27.4929 84.4928 27.3819 83.7488 27.1634L86.0396 19.3629L88.3303 27.1661C87.5862 27.3837 86.8148 27.4938 86.0396 27.4929Z" fill="black"/>
<path d="M152.903 15.8521H147.413L141.179 33.7267H145.94L146.824 30.7163C149 31.3553 151.314 31.3553 153.491 30.7163L154.374 33.7267H159.136L152.903 15.8521ZM150.156 27.4929C149.381 27.4929 148.609 27.3819 147.865 27.1634L150.156 19.3629L152.447 27.1661C151.703 27.3837 150.931 27.4938 150.156 27.4929Z" fill="black"/>
</g>
<defs>
<clipPath id="clip0_3_453">
<rect width="178" height="48" fill="white" transform="translate(0.418182)"/>
</clipPath>
</defs>
</svg>
