<svg width="127" height="38" viewBox="0 0 127 38" fill="none" xmlns="http://www.w3.org/2000/svg">
<rect y="0.0126953" width="37.9747" height="37.9747" rx="1.51899" fill="#FF2150"/>
<path d="M9.22183 31.7722V5.25898H15.6301V16.4701H15.9796L24.744 5.25898H32.2914L22.8927 17.0915L32.4597 31.7722H24.7958L18.1933 21.3508L15.6301 24.5872V31.7722H9.22183Z" fill="#333333"/>
<path d="M48.7832 15V2.8481H52.0823V7.76108H52.2484L55.9035 2.8481H59.7484L55.6424 8.25949L59.8434 15H55.9035L53.1741 10.443L52.0823 11.8671V15H48.7832ZM60.7275 15V2.8481H69.4854V5.50633H64.0265V7.59494H69.0344V10.2532H64.0265V12.3418H69.4616V15H60.7275ZM70.7893 5.50633V2.8481H81.351V5.50633H77.6959V15H74.4443V5.50633H70.7893ZM82.5926 15V2.8481H85.8916V7.59494H90.2587V2.8481H93.5578V15H90.2587V10.2532H85.8916V15H82.5926ZM51.9399 35H48.3797L52.3908 22.8481H56.9003L60.9114 35H57.3513L54.693 26.1946H54.5981L51.9399 35ZM51.2753 30.2057H57.9684V32.6741H51.2753V30.2057ZM69.4023 26.8592C69.3509 26.6495 69.2698 26.4656 69.159 26.3074C69.0483 26.1452 68.9098 26.0087 68.7437 25.8979C68.5815 25.7832 68.3916 25.6982 68.1741 25.6428C67.9604 25.5835 67.7251 25.5538 67.468 25.5538C66.9142 25.5538 66.4415 25.6863 66.0498 25.9513C65.6622 26.2164 65.3655 26.5981 65.1598 27.0965C64.9581 27.5949 64.8572 28.1962 64.8572 28.9003C64.8572 29.6123 64.9541 30.2215 65.1479 30.7278C65.3418 31.2342 65.6305 31.6218 66.0142 31.8908C66.3979 32.1598 66.8746 32.2943 67.4442 32.2943C67.9466 32.2943 68.3639 32.2211 68.6962 32.0748C69.0324 31.9284 69.2836 31.7207 69.4498 31.4517C69.6159 31.1828 69.699 30.8663 69.699 30.5024L70.2686 30.5617H67.4917V28.212H72.8794V29.8972C72.8794 31.0047 72.644 31.9521 72.1733 32.7393C71.7065 33.5225 71.0617 34.1238 70.2389 34.5431C69.4201 34.9585 68.4806 35.1661 67.4205 35.1661C66.2377 35.1661 65.1994 34.915 64.3054 34.4126C63.4114 33.9102 62.7132 33.1942 62.2108 32.2646C61.7124 31.335 61.4632 30.2294 61.4632 28.9478C61.4632 27.943 61.6155 27.053 61.9201 26.2777C62.2286 25.5024 62.6559 24.8477 63.2017 24.3137C63.7476 23.7757 64.3786 23.3703 65.0945 23.0973C65.8105 22.8204 66.5779 22.682 67.3968 22.682C68.1167 22.682 68.7852 22.7848 69.4023 22.9905C70.0233 23.1922 70.5712 23.481 71.0459 23.8568C71.5245 24.2286 71.9102 24.6697 72.2029 25.18C72.4956 25.6903 72.6737 26.25 72.7369 26.8592H69.4023ZM74.4176 35V22.8481H83.1755V25.5063H77.7167V27.5949H82.7246V30.2532H77.7167V32.3418H83.1518V35H74.4176ZM95.3259 22.8481V35H92.5728L88.182 28.6155H88.1108V35H84.8117V22.8481H87.6123L91.932 29.2089H92.0269V22.8481H95.3259ZM108.231 27.4051H104.885C104.861 27.1282 104.798 26.877 104.695 26.6515C104.596 26.426 104.458 26.2322 104.28 26.07C104.106 25.9039 103.894 25.7773 103.645 25.6903C103.396 25.5993 103.113 25.5538 102.796 25.5538C102.242 25.5538 101.774 25.6883 101.39 25.9573C101.01 26.2263 100.722 26.6119 100.524 27.1143C100.33 27.6167 100.233 28.2199 100.233 28.9241C100.233 29.6677 100.332 30.2907 100.53 30.7931C100.731 31.2915 101.022 31.6673 101.402 31.9205C101.782 32.1697 102.239 32.2943 102.773 32.2943C103.077 32.2943 103.35 32.2567 103.591 32.1816C103.833 32.1025 104.042 31.9897 104.22 31.8434C104.398 31.697 104.543 31.521 104.653 31.3153C104.768 31.1056 104.845 30.8703 104.885 30.6092L108.231 30.6329C108.192 31.1472 108.047 31.6713 107.798 32.2053C107.549 32.7354 107.195 33.2259 106.736 33.6768C106.281 34.1238 105.718 34.4838 105.045 34.7567C104.373 35.0297 103.591 35.1661 102.701 35.1661C101.586 35.1661 100.585 34.9268 99.699 34.4482C98.8168 33.9695 98.1187 33.2654 97.6044 32.3358C97.0941 31.4062 96.839 30.269 96.839 28.9241C96.839 27.5712 97.1001 26.432 97.6222 25.5063C98.1444 24.5767 98.8485 23.8746 99.7346 23.3999C100.621 22.9213 101.61 22.682 102.701 22.682C103.469 22.682 104.175 22.7868 104.82 22.9964C105.464 23.2061 106.03 23.5127 106.517 23.9161C107.003 24.3157 107.395 24.8081 107.691 25.3936C107.988 25.979 108.168 26.6495 108.231 27.4051ZM109.23 22.8481H112.909L115.282 27.7848H115.377L117.75 22.8481H121.429L116.967 31.1788V35H113.692V31.1788L109.23 22.8481Z" fill="white"/>
<path d="M122.815 35.1899C122.356 35.1899 121.962 35.0297 121.634 34.7093C121.309 34.3849 121.149 33.9913 121.153 33.5285C121.149 33.0775 121.309 32.6919 121.634 32.3714C121.962 32.051 122.356 31.8908 122.815 31.8908C123.25 31.8908 123.633 32.051 123.966 32.3714C124.302 32.6919 124.472 33.0775 124.476 33.5285C124.472 33.837 124.391 34.1179 124.233 34.371C124.078 34.6203 123.877 34.82 123.627 34.9703C123.378 35.1167 123.107 35.1899 122.815 35.1899Z" fill="#FF2150"/>
</svg>
