<svg width="316" height="100" viewBox="0 0 316 100" fill="none" xmlns="http://www.w3.org/2000/svg">
<rect width="100" height="100" rx="4" fill="#FF2150"/>
<path d="M24.2841 85V15.1818H41.1591V44.7045H42.0795L65.1591 15.1818H85.0341L60.2841 46.3409L85.4773 85H65.2955L47.9091 57.5568L41.1591 66.0795V85H24.2841Z" fill="white"/>
<path d="M112.062 40V8H120.75V20.9375H121.188L130.813 8H140.938L130.125 22.25L141.187 40H130.813L123.625 28L120.75 31.75V40H112.062ZM143.516 40V8H166.578V15H152.203V20.5H165.391V27.5H152.203V33H166.516V40H143.516ZM170.012 15V8H197.824V15H188.199V40H179.637V15H170.012ZM201.094 40V8H209.781V20.5H221.281V8H229.969V40H221.281V27.5H209.781V40H201.094ZM120.375 93H111L121.563 61H133.438L144 93H134.625L127.625 69.8125H127.375L120.375 93ZM118.625 80.375H136.25V86.875H118.625V80.375ZM166.359 71.5625C166.224 71.0104 166.01 70.526 165.719 70.1094C165.427 69.6823 165.063 69.3229 164.625 69.0313C164.198 68.7292 163.698 68.5052 163.125 68.3594C162.563 68.2031 161.943 68.125 161.266 68.125C159.807 68.125 158.563 68.474 157.531 69.1719C156.51 69.8698 155.729 70.875 155.188 72.1875C154.656 73.5 154.391 75.0833 154.391 76.9375C154.391 78.8125 154.646 80.4167 155.156 81.75C155.667 83.0833 156.427 84.1042 157.438 84.8125C158.448 85.5208 159.703 85.875 161.203 85.875C162.526 85.875 163.625 85.6823 164.5 85.2969C165.385 84.9115 166.047 84.3646 166.484 83.6562C166.922 82.9479 167.141 82.1146 167.141 81.1562L168.641 81.3125H161.328V75.125H175.516V79.5625C175.516 82.4792 174.896 84.974 173.656 87.0469C172.427 89.1094 170.729 90.6927 168.563 91.7969C166.406 92.8906 163.932 93.4375 161.141 93.4375C158.026 93.4375 155.292 92.776 152.938 91.4531C150.583 90.1302 148.745 88.2448 147.422 85.7969C146.109 83.349 145.453 80.4375 145.453 77.0625C145.453 74.4167 145.854 72.0729 146.656 70.0312C147.469 67.9896 148.594 66.2656 150.031 64.8594C151.469 63.4427 153.13 62.375 155.016 61.6562C156.901 60.9271 158.922 60.5625 161.078 60.5625C162.974 60.5625 164.734 60.8333 166.359 61.375C167.995 61.9062 169.438 62.6667 170.688 63.6562C171.948 64.6354 172.964 65.7969 173.734 67.1406C174.505 68.4844 174.974 69.9583 175.141 71.5625H166.359ZM179.566 93V61H202.629V68H188.254V73.5H201.441V80.5H188.254V86H202.566V93H179.566ZM234.625 61V93H227.375L215.813 76.1875H215.625V93H206.938V61H214.313L225.688 77.75H225.938V61H234.625ZM268.609 73H259.797C259.734 72.2708 259.568 71.6094 259.297 71.0156C259.036 70.4219 258.672 69.9115 258.203 69.4844C257.745 69.0469 257.188 68.7135 256.531 68.4844C255.875 68.2448 255.13 68.125 254.297 68.125C252.839 68.125 251.604 68.4792 250.594 69.1875C249.594 69.8958 248.833 70.9115 248.312 72.2344C247.802 73.5573 247.547 75.1458 247.547 77C247.547 78.9583 247.807 80.599 248.328 81.9219C248.859 83.2344 249.625 84.224 250.625 84.8906C251.625 85.5469 252.828 85.875 254.234 85.875C255.036 85.875 255.755 85.776 256.391 85.5781C257.026 85.3698 257.578 85.0729 258.047 84.6875C258.516 84.3021 258.896 83.8385 259.188 83.2969C259.49 82.7448 259.693 82.125 259.797 81.4375L268.609 81.5C268.505 82.8542 268.125 84.2344 267.469 85.6406C266.813 87.0365 265.88 88.3281 264.672 89.5156C263.474 90.6927 261.99 91.6406 260.219 92.3594C258.448 93.0781 256.391 93.4375 254.047 93.4375C251.109 93.4375 248.474 92.8073 246.141 91.5469C243.818 90.2865 241.979 88.4323 240.625 85.9844C239.281 83.5365 238.609 80.5417 238.609 77C238.609 73.4375 239.297 70.4375 240.672 68C242.047 65.5521 243.901 63.7031 246.234 62.4531C248.568 61.1927 251.172 60.5625 254.047 60.5625C256.068 60.5625 257.927 60.8385 259.625 61.3906C261.323 61.9427 262.813 62.75 264.094 63.8125C265.375 64.8646 266.406 66.1615 267.188 67.7031C267.969 69.2448 268.443 71.0104 268.609 73ZM271.238 61H280.926L287.176 74H287.426L293.676 61H303.363L291.613 82.9375V93H282.988V82.9375L271.238 61Z" fill="white"/>
<path d="M307.012 93.5C305.803 93.5 304.767 93.0781 303.902 92.2344C303.048 91.3802 302.626 90.3437 302.637 89.125C302.626 87.9375 303.048 86.9219 303.902 86.0781C304.767 85.2344 305.803 84.8125 307.012 84.8125C308.158 84.8125 309.168 85.2344 310.043 86.0781C310.928 86.9219 311.376 87.9375 311.387 89.125C311.376 89.9375 311.163 90.6771 310.746 91.3437C310.34 92 309.809 92.526 309.152 92.9219C308.496 93.3073 307.783 93.5 307.012 93.5Z" fill="#FF2150"/>
</svg>
